<svg xmlns="http://www.w3.org/2000/svg" viewBox="0 0 512 512" width="512" height="512">
  <rect width="512" height="512" fill="#f8f9fa"/>
  <path d="M464,64H48C21.49,64,0,85.49,0,112v288c0,26.51,21.49,48,48,48h416c26.51,0,48-21.49,48-48V112C512,85.49,490.51,64,464,64z M112,160c26.51,0,48,21.49,48,48s-21.49,48-48,48s-48-21.49-48-48S85.49,160,112,160z M416,416H96c-8.84,0-16-7.16-16-16v-36.9l64-77.89l96,96l64-64L416,428.8V400C416,408.84,408.84,416,400,416z" fill="#d1d5db"/>
  <text x="256" y="256" text-anchor="middle" alignment-baseline="middle" font-size="40" fill="#6c757d">No Image</text>
</svg>
